<svg viewBox="0 0 530 176" xmlns="http://www.w3.org/2000/svg" fill-rule="evenodd" clip-rule="evenodd" stroke-linejoin="round" stroke-miterlimit="2"><path d="M159.113 72.852c8.465-.407 15.958 6.16 16.689 14.632 3.166 40.986-34.344 86.899-87.202 88.367C44.056 176.95 0 141.289 0 87.367 0 78.869 7.023 71.98 15.497 71.98s15.344 6.889 15.344 15.387c0 35.468 28.519 58.423 57.004 57.72 35.067-.974 57.863-31.337 56.677-56.129-.406-8.488 6.127-15.699 14.591-16.106z" fill="url(#_Linear1)" fill-rule="nonzero"/><path d="M120.781 88.56c0-8.7 7.097-15.753 15.851-15.753h23.099c8.755 0 16.071 7.053 16.071 15.753s-7.316 15.753-16.071 15.753h-23.099c-8.754 0-15.851-7.053-15.851-15.753zm-48.468.023c0-8.713 7.051-15.776 15.739-15.776 8.69 0 15.741 7.063 15.741 15.776 0 8.712-7.051 15.776-15.741 15.776-8.688 0-15.739-7.064-15.739-15.776z" fill="#00a672" fill-rule="nonzero"/><path d="M103.357 14.873c.352 8.491-6.227 15.659-14.694 16.012-36.551 1.522-58.865 30.25-57.78 57.528.338 8.491-6.115 15.649-14.582 15.988-8.468.34-15.914-6.514-16.252-15.004C-1.721 44.945 35.291 1.001 87.388.138c8.468-.352 15.617 6.244 15.968 14.735h.001z" fill="#00a672"/><path d="M232.508 139.316c-6.336 0-12.624-1.536-18.864-4.608-6.24-3.072-10.992-7.008-14.256-11.808l14.112-13.824c1.536 3.264 3.888 5.904 7.056 7.92s6.432 3.024 9.792 3.024c4.32 0 7.896-1.536 10.728-4.608 2.832-3.072 4.248-7.008 4.248-11.808V38.66h21.312v66.672c0 6.528-1.44 12.384-4.32 17.568-2.88 5.184-6.912 9.216-12.096 12.096-5.184 2.88-11.088 4.32-17.712 4.32zM318.62 61.412c6.432 0 12.12 1.296 17.064 3.888 4.944 2.592 8.784 6.264 11.52 11.016 2.736 4.752 4.104 10.344 4.104 16.776v44.496h-20.304V130.1c-2.592 2.976-5.856 5.256-9.792 6.84-3.936 1.584-7.968 2.376-12.096 2.376-5.28 0-10.056-.984-14.328-2.952s-7.632-4.776-10.08-8.424c-2.448-3.648-3.672-7.776-3.672-12.384 0-4.8 1.368-9.072 4.104-12.816 2.736-3.744 6.456-6.672 11.16-8.784 4.704-2.112 9.936-3.168 15.696-3.168 6.24 0 12.576 1.248 19.008 3.744v-1.44c0-4.32-1.416-7.872-4.248-10.656-2.832-2.784-7.128-4.176-12.888-4.176-5.952 0-12.384 1.776-19.296 5.328l-7.056-13.968c10.752-5.472 21.12-8.208 31.104-8.208zm-4.752 63.36c4.224 0 7.968-.936 11.232-2.808 3.264-1.872 5.232-4.488 5.904-7.848v-6.912c-4.992-1.824-10.32-2.736-15.984-2.736-3.84 0-7.08 1.008-9.72 3.024-2.64 2.016-3.96 4.512-3.96 7.488 0 2.976 1.176 5.352 3.528 7.128 2.352 1.776 5.352 2.664 9 2.664zM445.628 36.932v100.656h-21.024v-10.656c-2.976 3.936-6.6 6.984-10.872 9.144s-9 3.24-14.184 3.24c-6.528 0-12.408-1.656-17.64-4.968-5.232-3.312-9.312-7.944-12.24-13.896-2.928-5.952-4.392-12.672-4.392-20.16 0-7.488 1.464-14.184 4.392-20.088 2.928-5.904 7.008-10.512 12.24-13.824 5.232-3.312 11.112-4.968 17.64-4.968 5.184 0 9.912 1.08 14.184 3.24 4.272 2.16 7.896 5.208 10.872 9.144V36.932h21.024zm-40.032 84.672c5.568 0 10.128-1.992 13.68-5.976 3.552-3.984 5.328-9.096 5.328-15.336 0-6.144-1.776-11.208-5.328-15.192-3.552-3.984-8.112-5.976-13.68-5.976-5.856 0-10.632 1.968-14.328 5.904-3.696 3.936-5.544 9.024-5.544 15.264s1.848 11.352 5.544 15.336c3.696 3.984 8.472 5.976 14.328 5.976zM497.324 61.412c6.432 0 12.12 1.296 17.064 3.888 4.944 2.592 8.784 6.264 11.52 11.016 2.736 4.752 4.104 10.344 4.104 16.776v44.496h-20.304V130.1c-2.592 2.976-5.856 5.256-9.792 6.84-3.936 1.584-7.968 2.376-12.096 2.376-5.28 0-10.056-.984-14.328-2.952s-7.632-4.776-10.08-8.424c-2.448-3.648-3.672-7.776-3.672-12.384 0-4.8 1.368-9.072 4.104-12.816 2.736-3.744 6.456-6.672 11.16-8.784 4.704-2.112 9.936-3.168 15.696-3.168 6.24 0 12.576 1.248 19.008 3.744v-1.44c0-4.32-1.416-7.872-4.248-10.656-2.832-2.784-7.128-4.176-12.888-4.176-5.952 0-12.384 1.776-19.296 5.328L466.22 69.62c10.752-5.472 21.12-8.208 31.104-8.208zm-4.752 63.36c4.224 0 7.968-.936 11.232-2.808 3.264-1.872 5.232-4.488 5.904-7.848v-6.912c-4.992-1.824-10.32-2.736-15.984-2.736-3.84 0-7.08 1.008-9.72 3.024-2.64 2.016-3.96 4.512-3.96 7.488 0 2.976 1.176 5.352 3.528 7.128 2.352 1.776 5.352 2.664 9 2.664z" fill="#d49125" fill-rule="nonzero"/><defs><linearGradient id="_Linear1" x1="0" y1="0" x2="1" y2="0" gradientUnits="userSpaceOnUse" gradientTransform="rotate(90 8.007 79.987) scale(103.897)"><stop offset="0" stop-color="#00583e"/><stop offset="1" stop-color="#00835c"/></linearGradient></defs></svg>